<svg xmlns="http://www.w3.org/2000/svg" viewBox="0 0 200 200">
  <defs>
    <polygon id="bar-a" points="-37.9,-36.4 -10.4,-84 0,-54 -17.1,-24.4"/>
    <polygon id="bar-b" points="10.4,-84 37.9,-36.4 17.1,-24.4 0,-54"/>
  </defs>
  <g transform="translate(100,100)">
    <!-- Snowflake: right bars first (underneath at junctions) -->
    <use href="#bar-b" fill="#5277C3" transform="rotate(0)"/>
    <use href="#bar-b" fill="#7EBAE4" transform="rotate(60)"/>
    <use href="#bar-b" fill="#5277C3" transform="rotate(120)"/>
    <use href="#bar-b" fill="#7EBAE4" transform="rotate(180)"/>
    <use href="#bar-b" fill="#5277C3" transform="rotate(240)"/>
    <use href="#bar-b" fill="#7EBAE4" transform="rotate(300)"/>
    <!-- Snowflake: left bars second (on top at junctions) -->
    <use href="#bar-a" fill="#5277C3" transform="rotate(0)"/>
    <use href="#bar-a" fill="#7EBAE4" transform="rotate(60)"/>
    <use href="#bar-a" fill="#5277C3" transform="rotate(120)"/>
    <use href="#bar-a" fill="#7EBAE4" transform="rotate(180)"/>
    <use href="#bar-a" fill="#5277C3" transform="rotate(240)"/>
    <use href="#bar-a" fill="#7EBAE4" transform="rotate(300)"/>
    <!-- Face: goofy grin with big eyes and buck teeth -->
    <circle cx="0" cy="0" r="30" fill="white" opacity="0.9"/>
    <!-- Left eye -->
    <ellipse cx="-10" cy="-8" rx="7" ry="8" fill="white" stroke="#333" stroke-width="2"/>
    <circle cx="-8" cy="-7" r="4" fill="#333"/>
    <circle cx="-6.5" cy="-9.5" r="1.5" fill="white"/>
    <!-- Right eye -->
    <ellipse cx="10" cy="-8" rx="7" ry="8" fill="white" stroke="#333" stroke-width="2"/>
    <circle cx="12" cy="-7" r="4" fill="#333"/>
    <circle cx="13.5" cy="-9.5" r="1.5" fill="white"/>
    <!-- Wide grin -->
    <path d="M -16,5 Q 0,26 16,5 Z" fill="white" stroke="#333" stroke-width="2.5"/>
    <!-- Buck teeth -->
    <rect x="-4.5" y="5" width="4" height="5.5" fill="white" stroke="#333" stroke-width="1" rx="0.5"/>
    <rect x="0.5" y="5" width="4" height="5.5" fill="white" stroke="#333" stroke-width="1" rx="0.5"/>
  </g>
</svg>
